<svg width="19" height="25" viewBox="0 0 19 25" fill="none" xmlns="http://www.w3.org/2000/svg">
<path d="M8.10547 25C4.2772 25 1.6856 24.2716 0.749121 23.9584C0.301074 23.8086 0 23.39 0 22.9168V9.179C0 8.70581 0.301074 8.28726 0.749121 8.1374C1.0458 8.03818 1.50854 7.89731 2.12402 7.75117V5.98145C2.12402 2.68325 4.80728 0 8.10547 0C8.98813 0 9.83828 0.187891 10.6324 0.558496C10.8156 0.644043 10.8949 0.861914 10.8093 1.04521C10.7238 1.22847 10.5059 1.30771 10.3226 1.22222C9.62627 0.897217 8.88032 0.732422 8.10547 0.732422C5.21118 0.732422 2.85645 3.08711 2.85645 5.98145V7.59111C3.29219 7.50381 3.78159 7.41934 4.32129 7.3457V5.98145C4.32129 3.89482 6.0189 2.19727 8.10547 2.19727C10.192 2.19727 11.8896 3.89482 11.8896 5.98145V7.3457C12.4293 7.41934 12.9188 7.50381 13.3545 7.59111V5.98145C13.3545 4.46338 12.6975 3.02031 11.5519 2.02222C11.3994 1.88936 11.3834 1.65806 11.5163 1.50552C11.6492 1.35293 11.8805 1.33711 12.033 1.46997C13.3383 2.60723 14.0869 4.25156 14.0869 5.98145V7.75117C14.7024 7.89736 15.1651 8.03818 15.4618 8.1374C15.9099 8.28726 16.2109 8.70581 16.2109 9.179V9.83076C16.4265 9.70581 16.6768 9.63418 16.9434 9.63418C17.7511 9.63418 18.4082 10.2913 18.4082 11.099V11.7338C18.4082 12.5415 17.7511 13.1986 16.9434 13.1986C16.1356 13.1986 15.4785 12.5415 15.4785 11.7338V9.179C15.4785 9.02129 15.3785 8.88184 15.2295 8.83203C14.327 8.53022 11.8262 7.82832 8.10547 7.82832C4.38477 7.82832 1.88394 8.53022 0.981445 8.83203C0.832471 8.88184 0.732422 9.02129 0.732422 9.179V22.9169C0.732422 23.0746 0.832471 23.2141 0.981445 23.2639C1.88394 23.5657 4.38477 24.2676 8.10547 24.2676C11.8262 24.2676 14.327 23.5657 15.2295 23.2639C15.3785 23.2141 15.4785 23.0746 15.4785 22.9169V22.4747C15.2629 22.5997 15.0127 22.6713 14.7461 22.6713C13.9384 22.6713 13.2812 22.0142 13.2812 21.2064V20.5717C13.2812 19.764 13.9384 19.1068 14.7461 19.1068C15.5538 19.1068 16.2109 19.764 16.2109 20.5717V22.9169C16.2109 23.3901 15.9099 23.8087 15.4618 23.9585C14.5253 24.2716 11.9337 25 8.10547 25ZM14.7461 19.8393C14.3422 19.8393 14.0137 20.1678 14.0137 20.5717V21.2064C14.0137 21.6103 14.3422 21.9389 14.7461 21.9389C15.15 21.9389 15.4785 21.6103 15.4785 21.2064V20.5717C15.4785 20.1678 15.15 19.8393 14.7461 19.8393ZM16.2109 11.099V11.7338C16.2109 12.1376 16.5395 12.4662 16.9434 12.4662C17.3472 12.4662 17.6758 12.1376 17.6758 11.7338V11.099C17.6758 10.6952 17.3472 10.3666 16.9434 10.3666C16.5395 10.3666 16.2109 10.6952 16.2109 11.099ZM8.10547 7.09585C9.23379 7.09585 10.2545 7.15908 11.1572 7.25635V5.98145C11.1572 4.29873 9.78823 2.92969 8.10547 2.92969C6.42271 2.92969 5.05371 4.29873 5.05371 5.98145V7.25635C5.95645 7.15913 6.97715 7.09585 8.10547 7.09585ZM18.042 22.6713C17.8397 22.6713 17.6758 22.5073 17.6758 22.3051V19.473C17.6758 19.2708 17.8397 19.1068 18.042 19.1068C18.2443 19.1068 18.4082 19.2708 18.4082 19.473V22.3051C18.4082 22.5073 18.2443 22.6713 18.042 22.6713ZM11.4502 22.6713C11.2479 22.6713 11.084 22.5073 11.084 22.3051V19.473C11.084 19.2708 11.2479 19.1068 11.4502 19.1068C11.6525 19.1068 11.8164 19.2708 11.8164 19.473V22.3051C11.8164 22.5073 11.6525 22.6713 11.4502 22.6713ZM9.25293 22.6713C9.05063 22.6713 8.88672 22.5073 8.88672 22.3051V19.473C8.88672 19.2708 9.05063 19.1068 9.25293 19.1068C9.45522 19.1068 9.61914 19.2708 9.61914 19.473V22.3051C9.61914 22.5073 9.45522 22.6713 9.25293 22.6713ZM18.042 17.935C17.8397 17.935 17.6758 17.771 17.6758 17.5688V14.7367C17.6758 14.5345 17.8397 14.3705 18.042 14.3705C18.2443 14.3705 18.4082 14.5345 18.4082 14.7367V17.5688C18.4082 17.771 18.2443 17.935 18.042 17.935ZM15.8447 17.935C15.6424 17.935 15.4785 17.771 15.4785 17.5688V14.7367C15.4785 14.5345 15.6424 14.3705 15.8447 14.3705C16.047 14.3705 16.2109 14.5345 16.2109 14.7367V17.5688C16.2109 17.771 16.047 17.935 15.8447 17.935ZM12.5488 17.935C11.7411 17.935 11.084 17.2778 11.084 16.4701V15.8354C11.084 15.0276 11.7411 14.3705 12.5488 14.3705C13.3565 14.3705 14.0137 15.0276 14.0137 15.8354V16.4701C14.0137 17.2778 13.3565 17.935 12.5488 17.935ZM12.5488 15.1029C12.145 15.1029 11.8164 15.4315 11.8164 15.8354V16.4701C11.8164 16.874 12.145 17.2025 12.5488 17.2025C12.9527 17.2025 13.2812 16.874 13.2812 16.4701V15.8354C13.2812 15.4315 12.9527 15.1029 12.5488 15.1029ZM9.25293 17.935C9.05063 17.935 8.88672 17.771 8.88672 17.5688V14.7367C8.88672 14.5345 9.05063 14.3705 9.25293 14.3705C9.45522 14.3705 9.61914 14.5345 9.61914 14.7367V17.5688C9.61914 17.771 9.45522 17.935 9.25293 17.935ZM13.6475 13.1986C13.4452 13.1986 13.2812 13.0347 13.2812 12.8324V10.0004C13.2812 9.79814 13.4452 9.63418 13.6475 9.63418C13.8498 9.63418 14.0137 9.79814 14.0137 10.0004V12.8324C14.0137 13.0347 13.8498 13.1986 13.6475 13.1986ZM10.3516 13.1986C9.54385 13.1986 8.88672 12.5415 8.88672 11.7338V11.099C8.88672 10.2913 9.54385 9.63418 10.3516 9.63418C11.1593 9.63418 11.8164 10.2913 11.8164 11.099V11.7338C11.8164 12.5415 11.1593 13.1986 10.3516 13.1986ZM10.3516 10.3666C9.94771 10.3666 9.61914 10.6952 9.61914 11.099V11.7338C9.61914 12.1376 9.94771 12.4662 10.3516 12.4662C10.7554 12.4662 11.084 12.1376 11.084 11.7338V11.099C11.084 10.6952 10.7554 10.3666 10.3516 10.3666Z" fill="#020305"/>
</svg>
