<svg width="300" height="58" viewBox="0 0 300 58" fill="none" xmlns="http://www.w3.org/2000/svg">
<path fill-rule="evenodd" clip-rule="evenodd" d="M91.9001 47.5H101.3V52.1H87.1001V27.6H91.9001V47.5ZM105.6 32.5C104.9 32.5 104.2 32.2 103.7 31.7C103.2 31.2 102.9 30.5 102.9 29.8C102.9 29.1 103.2 28.4 103.7 27.8C104.2 27.2 104.9 27 105.6 27C106.4 27 107 27.3 107.6 27.8C108.1 28.4 108.4 29 108.4 29.8C108.4 30.5 108.1 31.2 107.6 31.7C107 32.3 106.4 32.5 105.6 32.5ZM103.4 52.2V34.6H107.9V52.1H103.4V52.2ZM121 31.5C118.5 31.3 117.3 32.3 117.3 34.5V34.7H121V39H117.3V52.2H112.8V39H110.3V34.7H112.8V34.5C112.8 32 113.5 30.1 114.9 28.9C116.3 27.6 118.3 27.1 121.1 27.2V31.5H121ZM125.8 45.3C126.4 47.5 128.1 48.6 130.7 48.6C132.4 48.6 133.7 48 134.6 46.8L138.2 48.9C136.5 51.4 133.9 52.7 130.6 52.7C127.7 52.7 125.4 51.8 123.6 50.1C121.8 48.3 121 46.1 121 43.5C121 40.9 121.9 38.7 123.6 36.9C125.3 35.1 127.6 34.3 130.3 34.3C132.9 34.3 135 35.2 136.7 37C138.4 38.8 139.2 41 139.2 43.6C139.2 44.2 139.1 44.8 139 45.5H125.8V45.3ZM125.7 41.8H134.6C134.3 40.6 133.8 39.7 133 39.1C132.2 38.5 131.3 38.2 130.2 38.2C129 38.2 128 38.5 127.2 39.1C126.5 39.8 126 40.6 125.7 41.8ZM166.2 52.2L164.7 47.8H155L153.5 52.2H148.3L156.9 27.7H162.9L171.5 52.2H166.2ZM156.5 43.2H163.2L159.8 33.2L156.5 43.2ZM177.7 37.6C178.1 36.5 178.8 35.6 179.8 35.1C180.8 34.6 181.9 34.3 183 34.3V39.3C181.6 39.1 180.4 39.4 179.3 40.1C178.2 40.8 177.7 42 177.7 43.7V52.1H173.2V34.6H177.7V37.6ZM192.9 52.7C190.3 52.7 188.1 51.8 186.3 50C184.5 48.2 183.7 46 183.7 43.4C183.7 40.8 184.6 38.6 186.3 36.8C188.1 35 190.3 34.1 192.9 34.1C194.6 34.1 196.2 34.5 197.6 35.3C199 36.1 200.1 37.2 200.8 38.6L196.9 40.9C196.5 40.2 196 39.6 195.3 39.2C194.6 38.8 193.8 38.6 192.9 38.6C191.5 38.6 190.4 39.1 189.5 39.9C188.6 40.8 188.2 42 188.2 43.4C188.2 44.8 188.6 45.9 189.5 46.8C190.4 47.7 191.5 48.1 192.9 48.1C193.8 48.1 194.6 47.9 195.3 47.5C196 47.1 196.5 46.5 196.9 45.8L200.8 48C200 49.4 198.9 50.5 197.5 51.3C196.2 52.2 194.6 52.7 192.9 52.7ZM212.6 34.1C214.5 34.1 216.1 34.7 217.4 36C218.7 37.3 219.3 39.1 219.3 41.3V52.1H214.8V42C214.8 40.8 214.5 39.9 213.9 39.3C213.3 38.7 212.4 38.4 211.4 38.4C210.2 38.4 209.3 38.8 208.6 39.5C207.9 40.2 207.5 41.3 207.5 42.8V52.3H203V27.6H207.5V36.6C208.4 35 210.2 34.1 212.6 34.1ZM224.8 32.5C224.1 32.5 223.4 32.2 222.9 31.7C222.4 31.2 222.1 30.5 222.1 29.8C222.1 29.1 222.4 28.4 222.9 27.8C223.4 27.2 224.1 27 224.8 27C225.6 27 226.2 27.3 226.8 27.8C227.3 28.4 227.6 29 227.6 29.8C227.6 30.5 227.3 31.2 226.8 31.7C226.3 32.3 225.6 32.5 224.8 32.5ZM222.6 52.2V34.6H227.1V52.1H222.6V52.2ZM242.4 34.6H247.4L240.7 52.1H235.5L228.8 34.6H233.8L238 46.9L242.4 34.6ZM252.2 45.3C252.8 47.5 254.5 48.6 257.1 48.6C258.8 48.6 260.1 48 261 46.8L264.6 48.9C262.9 51.4 260.3 52.7 257 52.7C254.1 52.7 251.8 51.8 250 50.1C248.2 48.3 247.4 46.1 247.4 43.5C247.4 40.9 248.3 38.7 250 36.9C251.7 35.1 254 34.3 256.7 34.3C259.3 34.3 261.4 35.2 263.1 37C264.8 38.8 265.6 41 265.6 43.6C265.6 44.2 265.5 44.8 265.4 45.5H252.2V45.3ZM252.1 41.8H261C260.7 40.6 260.2 39.7 259.4 39.1C258.6 38.5 257.7 38.2 256.6 38.2C255.4 38.2 254.4 38.5 253.6 39.1C252.9 39.8 252.4 40.6 252.1 41.8Z" fill="#FE5757"/>
<path fill-rule="evenodd" clip-rule="evenodd" d="M275.3 20.7C277.1 18.9 279.2 18 281.8 18C284.3 18 286.5 18.9 288.3 20.7C290.1 22.5 291 24.6 291 27.2C291 29.7 290.1 31.9 288.3 33.7C286.5 35.5 284.4 36.4 281.8 36.4C279.3 36.4 277.1 35.5 275.3 33.7C273.5 31.9 272.6 29.8 272.6 27.2C272.6 24.7 273.5 22.5 275.3 20.7ZM281.8 35.5C284.1 35.5 286 34.7 287.6 33.1C289.2 31.5 290 29.5 290 27.2C290 24.9 289.2 23 287.6 21.3C286 19.7 284.1 18.9 281.8 18.9C279.5 18.9 277.6 19.7 276 21.3C274.4 22.9 273.6 24.9 273.6 27.2C273.6 29.5 274.4 31.4 276 33.1C277.6 34.6 279.5 35.5 281.8 35.5ZM285.7 25.6C285.7 26.8 285.2 27.7 284.3 28.4L286.2 31.8H283.3L282 29H281V31.8H278.3V22.5H282.1C283.1 22.5 284 22.8 284.7 23.4C285.3 24 285.7 24.7 285.7 25.6ZM281 25V26.8H281.8C282.2 26.8 282.4 26.7 282.6 26.5C282.8 26.3 282.9 26.1 282.9 25.8C282.9 25.2 282.5 24.9 281.8 24.9H281V25Z" fill="#FE5757"/>
<path d="M7.30005 11.2002L46.6 52.4002H7.30005V11.2002Z" fill="#FD5050"/>
<path opacity="0.8" d="M46.8 11.2002L70.7 52.4002H23L46.8 11.2002Z" fill="#FD5050"/>
<path d="M13.9001 18.1006L40.6001 46.1006H13.9001V18.1006Z" fill="#EA9090"/>
<path opacity="0.8" d="M46.8 26L58.5 46.3H35.2L46.8 26Z" fill="#FD5050"/>
</svg>
